<mxfile host="app.diagrams.net" modified="2020-04-04T22:20:55.465Z" agent="5.0 (Macintosh; Intel Mac OS X 10_15_4) AppleWebKit/537.36 (KHTML, like Gecko) Chrome/80.0.3987.149 Safari/537.36" etag="nA9DvHmcPksYY28r1l4A" version="12.9.4" type="github">
  <diagram id="4RfyqIRO7JchgbQ5Wjcv" name="Page-1">
    <mxGraphModel dx="1426" dy="722" grid="1" gridSize="10" guides="1" tooltips="1" connect="1" arrows="1" fold="1" page="1" pageScale="1" pageWidth="850" pageHeight="1100" math="0" shadow="0">
      <root>
        <mxCell id="0" />
        <mxCell id="1" parent="0" />
        <mxCell id="TRaGimJmE6PcG_rSbhwL-11" value="restaurant" style="swimlane;fontStyle=0;childLayout=stackLayout;horizontal=1;startSize=26;fillColor=#e0e0e0;horizontalStack=0;resizeParent=1;resizeParentMax=0;resizeLast=0;collapsible=1;marginBottom=0;swimlaneFillColor=#ffffff;align=center;fontSize=14;" parent="1" vertex="1">
          <mxGeometry x="20" y="30" width="160" height="170" as="geometry" />
        </mxCell>
        <mxCell id="TRaGimJmE6PcG_rSbhwL-12" value="id" style="shape=partialRectangle;top=0;left=0;right=0;bottom=1;align=left;verticalAlign=middle;fillColor=none;spacingLeft=34;spacingRight=4;overflow=hidden;rotatable=0;points=[[0,0.5],[1,0.5]];portConstraint=eastwest;dropTarget=0;fontStyle=5;fontSize=12;" parent="TRaGimJmE6PcG_rSbhwL-11" vertex="1">
          <mxGeometry y="26" width="160" height="30" as="geometry" />
        </mxCell>
        <mxCell id="TRaGimJmE6PcG_rSbhwL-13" value="PK" style="shape=partialRectangle;top=0;left=0;bottom=0;fillColor=none;align=left;verticalAlign=middle;spacingLeft=4;spacingRight=4;overflow=hidden;rotatable=0;points=[];portConstraint=eastwest;part=1;fontSize=12;" parent="TRaGimJmE6PcG_rSbhwL-12" vertex="1" connectable="0">
          <mxGeometry width="30" height="30" as="geometry" />
        </mxCell>
        <mxCell id="TRaGimJmE6PcG_rSbhwL-16" value="address" style="shape=partialRectangle;top=0;left=0;right=0;bottom=0;align=left;verticalAlign=top;fillColor=none;spacingLeft=34;spacingRight=4;overflow=hidden;rotatable=0;points=[[0,0.5],[1,0.5]];portConstraint=eastwest;dropTarget=0;fontSize=12;" parent="TRaGimJmE6PcG_rSbhwL-11" vertex="1">
          <mxGeometry y="56" width="160" height="26" as="geometry" />
        </mxCell>
        <mxCell id="TRaGimJmE6PcG_rSbhwL-17" value="*" style="shape=partialRectangle;top=0;left=0;bottom=0;fillColor=none;align=left;verticalAlign=top;spacingLeft=4;spacingRight=4;overflow=hidden;rotatable=0;points=[];portConstraint=eastwest;part=1;fontSize=12;" parent="TRaGimJmE6PcG_rSbhwL-16" vertex="1" connectable="0">
          <mxGeometry width="30" height="26" as="geometry" />
        </mxCell>
        <mxCell id="TRaGimJmE6PcG_rSbhwL-14" value="name" style="shape=partialRectangle;top=0;left=0;right=0;bottom=0;align=left;verticalAlign=top;fillColor=none;spacingLeft=34;spacingRight=4;overflow=hidden;rotatable=0;points=[[0,0.5],[1,0.5]];portConstraint=eastwest;dropTarget=0;fontSize=12;" parent="TRaGimJmE6PcG_rSbhwL-11" vertex="1">
          <mxGeometry y="82" width="160" height="26" as="geometry" />
        </mxCell>
        <mxCell id="TRaGimJmE6PcG_rSbhwL-15" value="*" style="shape=partialRectangle;top=0;left=0;bottom=0;fillColor=none;align=left;verticalAlign=top;spacingLeft=4;spacingRight=4;overflow=hidden;rotatable=0;points=[];portConstraint=eastwest;part=1;fontSize=12;" parent="TRaGimJmE6PcG_rSbhwL-14" vertex="1" connectable="0">
          <mxGeometry width="30" height="26" as="geometry" />
        </mxCell>
        <mxCell id="TRaGimJmE6PcG_rSbhwL-18" value="phone" style="shape=partialRectangle;top=0;left=0;right=0;bottom=0;align=left;verticalAlign=top;fillColor=none;spacingLeft=34;spacingRight=4;overflow=hidden;rotatable=0;points=[[0,0.5],[1,0.5]];portConstraint=eastwest;dropTarget=0;fontSize=12;" parent="TRaGimJmE6PcG_rSbhwL-11" vertex="1">
          <mxGeometry y="108" width="160" height="26" as="geometry" />
        </mxCell>
        <mxCell id="TRaGimJmE6PcG_rSbhwL-19" value="*" style="shape=partialRectangle;top=0;left=0;bottom=0;fillColor=none;align=left;verticalAlign=top;spacingLeft=4;spacingRight=4;overflow=hidden;rotatable=0;points=[];portConstraint=eastwest;part=1;fontSize=12;" parent="TRaGimJmE6PcG_rSbhwL-18" vertex="1" connectable="0">
          <mxGeometry width="30" height="26" as="geometry" />
        </mxCell>
        <mxCell id="TRaGimJmE6PcG_rSbhwL-171" value="rate" style="shape=partialRectangle;top=0;left=0;right=0;bottom=0;align=left;verticalAlign=top;fillColor=none;spacingLeft=34;spacingRight=4;overflow=hidden;rotatable=0;points=[[0,0.5],[1,0.5]];portConstraint=eastwest;dropTarget=0;fontSize=12;" parent="TRaGimJmE6PcG_rSbhwL-11" vertex="1">
          <mxGeometry y="134" width="160" height="26" as="geometry" />
        </mxCell>
        <mxCell id="TRaGimJmE6PcG_rSbhwL-172" value="*" style="shape=partialRectangle;top=0;left=0;bottom=0;fillColor=none;align=left;verticalAlign=top;spacingLeft=4;spacingRight=4;overflow=hidden;rotatable=0;points=[];portConstraint=eastwest;part=1;fontSize=12;" parent="TRaGimJmE6PcG_rSbhwL-171" vertex="1" connectable="0">
          <mxGeometry width="30" height="26" as="geometry" />
        </mxCell>
        <mxCell id="TRaGimJmE6PcG_rSbhwL-20" value="" style="shape=partialRectangle;top=0;left=0;right=0;bottom=0;align=left;verticalAlign=top;fillColor=none;spacingLeft=34;spacingRight=4;overflow=hidden;rotatable=0;points=[[0,0.5],[1,0.5]];portConstraint=eastwest;dropTarget=0;fontSize=12;" parent="TRaGimJmE6PcG_rSbhwL-11" vertex="1">
          <mxGeometry y="160" width="160" height="10" as="geometry" />
        </mxCell>
        <mxCell id="TRaGimJmE6PcG_rSbhwL-21" value="" style="shape=partialRectangle;top=0;left=0;bottom=0;fillColor=none;align=left;verticalAlign=top;spacingLeft=4;spacingRight=4;overflow=hidden;rotatable=0;points=[];portConstraint=eastwest;part=1;fontSize=12;" parent="TRaGimJmE6PcG_rSbhwL-20" vertex="1" connectable="0">
          <mxGeometry width="30" height="10" as="geometry" />
        </mxCell>
        <mxCell id="TRaGimJmE6PcG_rSbhwL-42" style="edgeStyle=orthogonalEdgeStyle;rounded=0;orthogonalLoop=1;jettySize=auto;html=1;" parent="1" source="TRaGimJmE6PcG_rSbhwL-12" target="TRaGimJmE6PcG_rSbhwL-40" edge="1">
          <mxGeometry relative="1" as="geometry" />
        </mxCell>
        <mxCell id="TRaGimJmE6PcG_rSbhwL-43" value="plate" style="swimlane;fontStyle=0;childLayout=stackLayout;horizontal=1;startSize=26;fillColor=#e0e0e0;horizontalStack=0;resizeParent=1;resizeParentMax=0;resizeLast=0;collapsible=1;marginBottom=0;swimlaneFillColor=#ffffff;align=center;fontSize=14;" parent="1" vertex="1">
          <mxGeometry x="30" y="290" width="160" height="248" as="geometry" />
        </mxCell>
        <mxCell id="TRaGimJmE6PcG_rSbhwL-44" value="id" style="shape=partialRectangle;top=0;left=0;right=0;bottom=1;align=left;verticalAlign=middle;fillColor=none;spacingLeft=34;spacingRight=4;overflow=hidden;rotatable=0;points=[[0,0.5],[1,0.5]];portConstraint=eastwest;dropTarget=0;fontStyle=5;fontSize=12;" parent="TRaGimJmE6PcG_rSbhwL-43" vertex="1">
          <mxGeometry y="26" width="160" height="30" as="geometry" />
        </mxCell>
        <mxCell id="TRaGimJmE6PcG_rSbhwL-45" value="PK" style="shape=partialRectangle;top=0;left=0;bottom=0;fillColor=none;align=left;verticalAlign=middle;spacingLeft=4;spacingRight=4;overflow=hidden;rotatable=0;points=[];portConstraint=eastwest;part=1;fontSize=12;" parent="TRaGimJmE6PcG_rSbhwL-44" vertex="1" connectable="0">
          <mxGeometry width="30" height="30" as="geometry" />
        </mxCell>
        <mxCell id="TRaGimJmE6PcG_rSbhwL-48" value="cost" style="shape=partialRectangle;top=0;left=0;right=0;bottom=0;align=left;verticalAlign=top;fillColor=none;spacingLeft=34;spacingRight=4;overflow=hidden;rotatable=0;points=[[0,0.5],[1,0.5]];portConstraint=eastwest;dropTarget=0;fontSize=12;" parent="TRaGimJmE6PcG_rSbhwL-43" vertex="1">
          <mxGeometry y="56" width="160" height="26" as="geometry" />
        </mxCell>
        <mxCell id="TRaGimJmE6PcG_rSbhwL-49" value="*" style="shape=partialRectangle;top=0;left=0;bottom=0;fillColor=none;align=left;verticalAlign=top;spacingLeft=4;spacingRight=4;overflow=hidden;rotatable=0;points=[];portConstraint=eastwest;part=1;fontSize=12;" parent="TRaGimJmE6PcG_rSbhwL-48" vertex="1" connectable="0">
          <mxGeometry width="30" height="26" as="geometry" />
        </mxCell>
        <mxCell id="TRaGimJmE6PcG_rSbhwL-54" value="description" style="shape=partialRectangle;top=0;left=0;right=0;bottom=0;align=left;verticalAlign=top;fillColor=none;spacingLeft=34;spacingRight=4;overflow=hidden;rotatable=0;points=[[0,0.5],[1,0.5]];portConstraint=eastwest;dropTarget=0;fontSize=12;" parent="TRaGimJmE6PcG_rSbhwL-43" vertex="1">
          <mxGeometry y="82" width="160" height="26" as="geometry" />
        </mxCell>
        <mxCell id="TRaGimJmE6PcG_rSbhwL-55" value="*" style="shape=partialRectangle;top=0;left=0;bottom=0;fillColor=none;align=left;verticalAlign=top;spacingLeft=4;spacingRight=4;overflow=hidden;rotatable=0;points=[];portConstraint=eastwest;part=1;fontSize=12;" parent="TRaGimJmE6PcG_rSbhwL-54" vertex="1" connectable="0">
          <mxGeometry width="30" height="26" as="geometry" />
        </mxCell>
        <mxCell id="TRaGimJmE6PcG_rSbhwL-58" value="id_restaurant" style="shape=partialRectangle;top=0;left=0;right=0;bottom=0;align=left;verticalAlign=top;fillColor=none;spacingLeft=34;spacingRight=4;overflow=hidden;rotatable=0;points=[[0,0.5],[1,0.5]];portConstraint=eastwest;dropTarget=0;fontSize=12;" parent="TRaGimJmE6PcG_rSbhwL-43" vertex="1">
          <mxGeometry y="108" width="160" height="26" as="geometry" />
        </mxCell>
        <mxCell id="TRaGimJmE6PcG_rSbhwL-59" value="*" style="shape=partialRectangle;top=0;left=0;bottom=0;fillColor=none;align=left;verticalAlign=top;spacingLeft=4;spacingRight=4;overflow=hidden;rotatable=0;points=[];portConstraint=eastwest;part=1;fontSize=12;" parent="TRaGimJmE6PcG_rSbhwL-58" vertex="1" connectable="0">
          <mxGeometry width="30" height="26" as="geometry" />
        </mxCell>
        <mxCell id="TRaGimJmE6PcG_rSbhwL-56" value="images" style="shape=partialRectangle;top=0;left=0;right=0;bottom=0;align=left;verticalAlign=top;fillColor=none;spacingLeft=34;spacingRight=4;overflow=hidden;rotatable=0;points=[[0,0.5],[1,0.5]];portConstraint=eastwest;dropTarget=0;fontSize=12;" parent="TRaGimJmE6PcG_rSbhwL-43" vertex="1">
          <mxGeometry y="134" width="160" height="26" as="geometry" />
        </mxCell>
        <mxCell id="TRaGimJmE6PcG_rSbhwL-57" value="*" style="shape=partialRectangle;top=0;left=0;bottom=0;fillColor=none;align=left;verticalAlign=top;spacingLeft=4;spacingRight=4;overflow=hidden;rotatable=0;points=[];portConstraint=eastwest;part=1;fontSize=12;" parent="TRaGimJmE6PcG_rSbhwL-56" vertex="1" connectable="0">
          <mxGeometry width="30" height="26" as="geometry" />
        </mxCell>
        <mxCell id="TRaGimJmE6PcG_rSbhwL-50" value="ingredient" style="shape=partialRectangle;top=0;left=0;right=0;bottom=0;align=left;verticalAlign=top;fillColor=none;spacingLeft=34;spacingRight=4;overflow=hidden;rotatable=0;points=[[0,0.5],[1,0.5]];portConstraint=eastwest;dropTarget=0;fontSize=12;" parent="TRaGimJmE6PcG_rSbhwL-43" vertex="1">
          <mxGeometry y="160" width="160" height="26" as="geometry" />
        </mxCell>
        <mxCell id="TRaGimJmE6PcG_rSbhwL-51" value="" style="shape=partialRectangle;top=0;left=0;bottom=0;fillColor=none;align=left;verticalAlign=top;spacingLeft=4;spacingRight=4;overflow=hidden;rotatable=0;points=[];portConstraint=eastwest;part=1;fontSize=12;" parent="TRaGimJmE6PcG_rSbhwL-50" vertex="1" connectable="0">
          <mxGeometry width="30" height="26" as="geometry" />
        </mxCell>
        <mxCell id="TRaGimJmE6PcG_rSbhwL-46" value="name" style="shape=partialRectangle;top=0;left=0;right=0;bottom=0;align=left;verticalAlign=top;fillColor=none;spacingLeft=34;spacingRight=4;overflow=hidden;rotatable=0;points=[[0,0.5],[1,0.5]];portConstraint=eastwest;dropTarget=0;fontSize=12;" parent="TRaGimJmE6PcG_rSbhwL-43" vertex="1">
          <mxGeometry y="186" width="160" height="26" as="geometry" />
        </mxCell>
        <mxCell id="TRaGimJmE6PcG_rSbhwL-47" value="*" style="shape=partialRectangle;top=0;left=0;bottom=0;fillColor=none;align=left;verticalAlign=top;spacingLeft=4;spacingRight=4;overflow=hidden;rotatable=0;points=[];portConstraint=eastwest;part=1;fontSize=12;" parent="TRaGimJmE6PcG_rSbhwL-46" vertex="1" connectable="0">
          <mxGeometry width="30" height="26" as="geometry" />
        </mxCell>
        <mxCell id="TRaGimJmE6PcG_rSbhwL-169" value="rate" style="shape=partialRectangle;top=0;left=0;right=0;bottom=0;align=left;verticalAlign=top;fillColor=none;spacingLeft=34;spacingRight=4;overflow=hidden;rotatable=0;points=[[0,0.5],[1,0.5]];portConstraint=eastwest;dropTarget=0;fontSize=12;" parent="TRaGimJmE6PcG_rSbhwL-43" vertex="1">
          <mxGeometry y="212" width="160" height="26" as="geometry" />
        </mxCell>
        <mxCell id="TRaGimJmE6PcG_rSbhwL-170" value="*" style="shape=partialRectangle;top=0;left=0;bottom=0;fillColor=none;align=left;verticalAlign=top;spacingLeft=4;spacingRight=4;overflow=hidden;rotatable=0;points=[];portConstraint=eastwest;part=1;fontSize=12;" parent="TRaGimJmE6PcG_rSbhwL-169" vertex="1" connectable="0">
          <mxGeometry width="30" height="26" as="geometry" />
        </mxCell>
        <mxCell id="TRaGimJmE6PcG_rSbhwL-52" value="" style="shape=partialRectangle;top=0;left=0;right=0;bottom=0;align=left;verticalAlign=top;fillColor=none;spacingLeft=34;spacingRight=4;overflow=hidden;rotatable=0;points=[[0,0.5],[1,0.5]];portConstraint=eastwest;dropTarget=0;fontSize=12;" parent="TRaGimJmE6PcG_rSbhwL-43" vertex="1">
          <mxGeometry y="238" width="160" height="10" as="geometry" />
        </mxCell>
        <mxCell id="TRaGimJmE6PcG_rSbhwL-53" value="" style="shape=partialRectangle;top=0;left=0;bottom=0;fillColor=none;align=left;verticalAlign=top;spacingLeft=4;spacingRight=4;overflow=hidden;rotatable=0;points=[];portConstraint=eastwest;part=1;fontSize=12;" parent="TRaGimJmE6PcG_rSbhwL-52" vertex="1" connectable="0">
          <mxGeometry width="30" height="10" as="geometry" />
        </mxCell>
        <mxCell id="TRaGimJmE6PcG_rSbhwL-60" style="edgeStyle=orthogonalEdgeStyle;rounded=0;orthogonalLoop=1;jettySize=auto;html=1;" parent="1" source="TRaGimJmE6PcG_rSbhwL-12" target="TRaGimJmE6PcG_rSbhwL-58" edge="1">
          <mxGeometry relative="1" as="geometry" />
        </mxCell>
        <object label="user_restaurant" id_restaurant="" id="TRaGimJmE6PcG_rSbhwL-22">
          <mxCell style="swimlane;fontStyle=0;childLayout=stackLayout;horizontal=1;startSize=26;fillColor=#e0e0e0;horizontalStack=0;resizeParent=1;resizeParentMax=0;resizeLast=0;collapsible=1;marginBottom=0;swimlaneFillColor=#ffffff;align=center;fontSize=14;" parent="1" vertex="1">
            <mxGeometry x="310" y="150" width="160" height="160" as="geometry" />
          </mxCell>
        </object>
        <mxCell id="TRaGimJmE6PcG_rSbhwL-23" value="id" style="shape=partialRectangle;top=0;left=0;right=0;bottom=1;align=left;verticalAlign=middle;fillColor=none;spacingLeft=34;spacingRight=4;overflow=hidden;rotatable=0;points=[[0,0.5],[1,0.5]];portConstraint=eastwest;dropTarget=0;fontStyle=5;fontSize=12;" parent="TRaGimJmE6PcG_rSbhwL-22" vertex="1">
          <mxGeometry y="26" width="160" height="30" as="geometry" />
        </mxCell>
        <mxCell id="TRaGimJmE6PcG_rSbhwL-24" value="PK" style="shape=partialRectangle;top=0;left=0;bottom=0;fillColor=none;align=left;verticalAlign=middle;spacingLeft=4;spacingRight=4;overflow=hidden;rotatable=0;points=[];portConstraint=eastwest;part=1;fontSize=12;" parent="TRaGimJmE6PcG_rSbhwL-23" vertex="1" connectable="0">
          <mxGeometry width="30" height="30" as="geometry" />
        </mxCell>
        <mxCell id="TRaGimJmE6PcG_rSbhwL-40" value="id_restaurant" style="shape=partialRectangle;top=0;left=0;right=0;bottom=0;align=left;verticalAlign=top;fillColor=none;spacingLeft=34;spacingRight=4;overflow=hidden;rotatable=0;points=[[0,0.5],[1,0.5]];portConstraint=eastwest;dropTarget=0;fontSize=12;" parent="TRaGimJmE6PcG_rSbhwL-22" vertex="1">
          <mxGeometry y="56" width="160" height="26" as="geometry" />
        </mxCell>
        <mxCell id="TRaGimJmE6PcG_rSbhwL-41" value="*" style="shape=partialRectangle;top=0;left=0;bottom=0;fillColor=none;align=left;verticalAlign=top;spacingLeft=4;spacingRight=4;overflow=hidden;rotatable=0;points=[];portConstraint=eastwest;part=1;fontSize=12;" parent="TRaGimJmE6PcG_rSbhwL-40" vertex="1" connectable="0">
          <mxGeometry width="30" height="26" as="geometry" />
        </mxCell>
        <mxCell id="TRaGimJmE6PcG_rSbhwL-25" value="name" style="shape=partialRectangle;top=0;left=0;right=0;bottom=0;align=left;verticalAlign=top;fillColor=none;spacingLeft=34;spacingRight=4;overflow=hidden;rotatable=0;points=[[0,0.5],[1,0.5]];portConstraint=eastwest;dropTarget=0;fontSize=12;" parent="TRaGimJmE6PcG_rSbhwL-22" vertex="1">
          <mxGeometry y="82" width="160" height="26" as="geometry" />
        </mxCell>
        <mxCell id="TRaGimJmE6PcG_rSbhwL-26" value="*" style="shape=partialRectangle;top=0;left=0;bottom=0;fillColor=none;align=left;verticalAlign=top;spacingLeft=4;spacingRight=4;overflow=hidden;rotatable=0;points=[];portConstraint=eastwest;part=1;fontSize=12;" parent="TRaGimJmE6PcG_rSbhwL-25" vertex="1" connectable="0">
          <mxGeometry width="30" height="26" as="geometry" />
        </mxCell>
        <mxCell id="TRaGimJmE6PcG_rSbhwL-27" value="password" style="shape=partialRectangle;top=0;left=0;right=0;bottom=0;align=left;verticalAlign=top;fillColor=none;spacingLeft=34;spacingRight=4;overflow=hidden;rotatable=0;points=[[0,0.5],[1,0.5]];portConstraint=eastwest;dropTarget=0;fontSize=12;" parent="TRaGimJmE6PcG_rSbhwL-22" vertex="1">
          <mxGeometry y="108" width="160" height="26" as="geometry" />
        </mxCell>
        <mxCell id="TRaGimJmE6PcG_rSbhwL-28" value="*" style="shape=partialRectangle;top=0;left=0;bottom=0;fillColor=none;align=left;verticalAlign=top;spacingLeft=4;spacingRight=4;overflow=hidden;rotatable=0;points=[];portConstraint=eastwest;part=1;fontSize=12;" parent="TRaGimJmE6PcG_rSbhwL-27" vertex="1" connectable="0">
          <mxGeometry width="30" height="26" as="geometry" />
        </mxCell>
        <mxCell id="TRaGimJmE6PcG_rSbhwL-29" value="user_name" style="shape=partialRectangle;top=0;left=0;right=0;bottom=0;align=left;verticalAlign=top;fillColor=none;spacingLeft=34;spacingRight=4;overflow=hidden;rotatable=0;points=[[0,0.5],[1,0.5]];portConstraint=eastwest;dropTarget=0;fontSize=12;" parent="TRaGimJmE6PcG_rSbhwL-22" vertex="1">
          <mxGeometry y="134" width="160" height="26" as="geometry" />
        </mxCell>
        <mxCell id="TRaGimJmE6PcG_rSbhwL-30" value="*" style="shape=partialRectangle;top=0;left=0;bottom=0;fillColor=none;align=left;verticalAlign=top;spacingLeft=4;spacingRight=4;overflow=hidden;rotatable=0;points=[];portConstraint=eastwest;part=1;fontSize=12;" parent="TRaGimJmE6PcG_rSbhwL-29" vertex="1" connectable="0">
          <mxGeometry width="30" height="26" as="geometry" />
        </mxCell>
        <mxCell id="TRaGimJmE6PcG_rSbhwL-72" value="user_client" style="swimlane;fontStyle=0;childLayout=stackLayout;horizontal=1;startSize=26;fillColor=#e0e0e0;horizontalStack=0;resizeParent=1;resizeParentMax=0;resizeLast=0;collapsible=1;marginBottom=0;swimlaneFillColor=#ffffff;align=center;fontSize=14;" parent="1" vertex="1">
          <mxGeometry x="590" y="40" width="160" height="222" as="geometry" />
        </mxCell>
        <mxCell id="TRaGimJmE6PcG_rSbhwL-73" value="id" style="shape=partialRectangle;top=0;left=0;right=0;bottom=1;align=left;verticalAlign=middle;fillColor=none;spacingLeft=34;spacingRight=4;overflow=hidden;rotatable=0;points=[[0,0.5],[1,0.5]];portConstraint=eastwest;dropTarget=0;fontStyle=5;fontSize=12;" parent="TRaGimJmE6PcG_rSbhwL-72" vertex="1">
          <mxGeometry y="26" width="160" height="30" as="geometry" />
        </mxCell>
        <mxCell id="TRaGimJmE6PcG_rSbhwL-74" value="PK" style="shape=partialRectangle;top=0;left=0;bottom=0;fillColor=none;align=left;verticalAlign=middle;spacingLeft=4;spacingRight=4;overflow=hidden;rotatable=0;points=[];portConstraint=eastwest;part=1;fontSize=12;" parent="TRaGimJmE6PcG_rSbhwL-73" vertex="1" connectable="0">
          <mxGeometry width="30" height="30" as="geometry" />
        </mxCell>
        <mxCell id="TRaGimJmE6PcG_rSbhwL-110" value="cell" style="shape=partialRectangle;top=0;left=0;right=0;bottom=0;align=left;verticalAlign=top;fillColor=none;spacingLeft=34;spacingRight=4;overflow=hidden;rotatable=0;points=[[0,0.5],[1,0.5]];portConstraint=eastwest;dropTarget=0;fontSize=12;" parent="TRaGimJmE6PcG_rSbhwL-72" vertex="1">
          <mxGeometry y="56" width="160" height="26" as="geometry" />
        </mxCell>
        <mxCell id="TRaGimJmE6PcG_rSbhwL-111" value="" style="shape=partialRectangle;top=0;left=0;bottom=0;fillColor=none;align=left;verticalAlign=top;spacingLeft=4;spacingRight=4;overflow=hidden;rotatable=0;points=[];portConstraint=eastwest;part=1;fontSize=12;" parent="TRaGimJmE6PcG_rSbhwL-110" vertex="1" connectable="0">
          <mxGeometry width="30" height="26" as="geometry" />
        </mxCell>
        <mxCell id="TRaGimJmE6PcG_rSbhwL-79" value="email" style="shape=partialRectangle;top=0;left=0;right=0;bottom=0;align=left;verticalAlign=top;fillColor=none;spacingLeft=34;spacingRight=4;overflow=hidden;rotatable=0;points=[[0,0.5],[1,0.5]];portConstraint=eastwest;dropTarget=0;fontSize=12;" parent="TRaGimJmE6PcG_rSbhwL-72" vertex="1">
          <mxGeometry y="82" width="160" height="26" as="geometry" />
        </mxCell>
        <mxCell id="TRaGimJmE6PcG_rSbhwL-80" value="*" style="shape=partialRectangle;top=0;left=0;bottom=0;fillColor=none;align=left;verticalAlign=top;spacingLeft=4;spacingRight=4;overflow=hidden;rotatable=0;points=[];portConstraint=eastwest;part=1;fontSize=12;" parent="TRaGimJmE6PcG_rSbhwL-79" vertex="1" connectable="0">
          <mxGeometry width="30" height="26" as="geometry" />
        </mxCell>
        <mxCell id="TRaGimJmE6PcG_rSbhwL-75" value="name" style="shape=partialRectangle;top=0;left=0;right=0;bottom=0;align=left;verticalAlign=top;fillColor=none;spacingLeft=34;spacingRight=4;overflow=hidden;rotatable=0;points=[[0,0.5],[1,0.5]];portConstraint=eastwest;dropTarget=0;fontSize=12;" parent="TRaGimJmE6PcG_rSbhwL-72" vertex="1">
          <mxGeometry y="108" width="160" height="26" as="geometry" />
        </mxCell>
        <mxCell id="TRaGimJmE6PcG_rSbhwL-76" value="*" style="shape=partialRectangle;top=0;left=0;bottom=0;fillColor=none;align=left;verticalAlign=top;spacingLeft=4;spacingRight=4;overflow=hidden;rotatable=0;points=[];portConstraint=eastwest;part=1;fontSize=12;" parent="TRaGimJmE6PcG_rSbhwL-75" vertex="1" connectable="0">
          <mxGeometry width="30" height="26" as="geometry" />
        </mxCell>
        <mxCell id="TRaGimJmE6PcG_rSbhwL-83" value="pass" style="shape=partialRectangle;top=0;left=0;right=0;bottom=0;align=left;verticalAlign=top;fillColor=none;spacingLeft=34;spacingRight=4;overflow=hidden;rotatable=0;points=[[0,0.5],[1,0.5]];portConstraint=eastwest;dropTarget=0;fontSize=12;" parent="TRaGimJmE6PcG_rSbhwL-72" vertex="1">
          <mxGeometry y="134" width="160" height="26" as="geometry" />
        </mxCell>
        <mxCell id="TRaGimJmE6PcG_rSbhwL-84" value="*" style="shape=partialRectangle;top=0;left=0;bottom=0;fillColor=none;align=left;verticalAlign=top;spacingLeft=4;spacingRight=4;overflow=hidden;rotatable=0;points=[];portConstraint=eastwest;part=1;fontSize=12;" parent="TRaGimJmE6PcG_rSbhwL-83" vertex="1" connectable="0">
          <mxGeometry width="30" height="26" as="geometry" />
        </mxCell>
        <mxCell id="TRaGimJmE6PcG_rSbhwL-112" value="phone" style="shape=partialRectangle;top=0;left=0;right=0;bottom=0;align=left;verticalAlign=top;fillColor=none;spacingLeft=34;spacingRight=4;overflow=hidden;rotatable=0;points=[[0,0.5],[1,0.5]];portConstraint=eastwest;dropTarget=0;fontSize=12;" parent="TRaGimJmE6PcG_rSbhwL-72" vertex="1">
          <mxGeometry y="160" width="160" height="26" as="geometry" />
        </mxCell>
        <mxCell id="TRaGimJmE6PcG_rSbhwL-113" value="" style="shape=partialRectangle;top=0;left=0;bottom=0;fillColor=none;align=left;verticalAlign=top;spacingLeft=4;spacingRight=4;overflow=hidden;rotatable=0;points=[];portConstraint=eastwest;part=1;fontSize=12;" parent="TRaGimJmE6PcG_rSbhwL-112" vertex="1" connectable="0">
          <mxGeometry width="30" height="26" as="geometry" />
        </mxCell>
        <mxCell id="TRaGimJmE6PcG_rSbhwL-77" value="user" style="shape=partialRectangle;top=0;left=0;right=0;bottom=0;align=left;verticalAlign=top;fillColor=none;spacingLeft=34;spacingRight=4;overflow=hidden;rotatable=0;points=[[0,0.5],[1,0.5]];portConstraint=eastwest;dropTarget=0;fontSize=12;" parent="TRaGimJmE6PcG_rSbhwL-72" vertex="1">
          <mxGeometry y="186" width="160" height="26" as="geometry" />
        </mxCell>
        <mxCell id="TRaGimJmE6PcG_rSbhwL-78" value="*" style="shape=partialRectangle;top=0;left=0;bottom=0;fillColor=none;align=left;verticalAlign=top;spacingLeft=4;spacingRight=4;overflow=hidden;rotatable=0;points=[];portConstraint=eastwest;part=1;fontSize=12;" parent="TRaGimJmE6PcG_rSbhwL-77" vertex="1" connectable="0">
          <mxGeometry width="30" height="26" as="geometry" />
        </mxCell>
        <mxCell id="TRaGimJmE6PcG_rSbhwL-81" value="" style="shape=partialRectangle;top=0;left=0;right=0;bottom=0;align=left;verticalAlign=top;fillColor=none;spacingLeft=34;spacingRight=4;overflow=hidden;rotatable=0;points=[[0,0.5],[1,0.5]];portConstraint=eastwest;dropTarget=0;fontSize=12;" parent="TRaGimJmE6PcG_rSbhwL-72" vertex="1">
          <mxGeometry y="212" width="160" height="10" as="geometry" />
        </mxCell>
        <mxCell id="TRaGimJmE6PcG_rSbhwL-82" value="" style="shape=partialRectangle;top=0;left=0;bottom=0;fillColor=none;align=left;verticalAlign=top;spacingLeft=4;spacingRight=4;overflow=hidden;rotatable=0;points=[];portConstraint=eastwest;part=1;fontSize=12;" parent="TRaGimJmE6PcG_rSbhwL-81" vertex="1" connectable="0">
          <mxGeometry width="30" height="10" as="geometry" />
        </mxCell>
        <mxCell id="TRaGimJmE6PcG_rSbhwL-109" style="edgeStyle=orthogonalEdgeStyle;rounded=0;orthogonalLoop=1;jettySize=auto;html=1;" parent="1" source="TRaGimJmE6PcG_rSbhwL-73" target="TRaGimJmE6PcG_rSbhwL-101" edge="1">
          <mxGeometry relative="1" as="geometry">
            <Array as="points">
              <mxPoint x="770" y="81" />
              <mxPoint x="770" y="270" />
              <mxPoint x="580" y="270" />
              <mxPoint x="580" y="359" />
            </Array>
          </mxGeometry>
        </mxCell>
        <mxCell id="TRaGimJmE6PcG_rSbhwL-98" value="user_address" style="swimlane;fontStyle=0;childLayout=stackLayout;horizontal=1;startSize=26;fillColor=#e0e0e0;horizontalStack=0;resizeParent=1;resizeParentMax=0;resizeLast=0;collapsible=1;marginBottom=0;swimlaneFillColor=#ffffff;align=center;fontSize=14;" parent="1" vertex="1">
          <mxGeometry x="600" y="290" width="160" height="118" as="geometry" />
        </mxCell>
        <mxCell id="TRaGimJmE6PcG_rSbhwL-99" value="id" style="shape=partialRectangle;top=0;left=0;right=0;bottom=1;align=left;verticalAlign=middle;fillColor=none;spacingLeft=34;spacingRight=4;overflow=hidden;rotatable=0;points=[[0,0.5],[1,0.5]];portConstraint=eastwest;dropTarget=0;fontStyle=5;fontSize=12;" parent="TRaGimJmE6PcG_rSbhwL-98" vertex="1">
          <mxGeometry y="26" width="160" height="30" as="geometry" />
        </mxCell>
        <mxCell id="TRaGimJmE6PcG_rSbhwL-100" value="PK" style="shape=partialRectangle;top=0;left=0;bottom=0;fillColor=none;align=left;verticalAlign=middle;spacingLeft=4;spacingRight=4;overflow=hidden;rotatable=0;points=[];portConstraint=eastwest;part=1;fontSize=12;" parent="TRaGimJmE6PcG_rSbhwL-99" vertex="1" connectable="0">
          <mxGeometry width="30" height="30" as="geometry" />
        </mxCell>
        <mxCell id="TRaGimJmE6PcG_rSbhwL-103" value="address" style="shape=partialRectangle;top=0;left=0;right=0;bottom=0;align=left;verticalAlign=top;fillColor=none;spacingLeft=34;spacingRight=4;overflow=hidden;rotatable=0;points=[[0,0.5],[1,0.5]];portConstraint=eastwest;dropTarget=0;fontSize=12;" parent="TRaGimJmE6PcG_rSbhwL-98" vertex="1">
          <mxGeometry y="56" width="160" height="26" as="geometry" />
        </mxCell>
        <mxCell id="TRaGimJmE6PcG_rSbhwL-104" value="*" style="shape=partialRectangle;top=0;left=0;bottom=0;fillColor=none;align=left;verticalAlign=top;spacingLeft=4;spacingRight=4;overflow=hidden;rotatable=0;points=[];portConstraint=eastwest;part=1;fontSize=12;" parent="TRaGimJmE6PcG_rSbhwL-103" vertex="1" connectable="0">
          <mxGeometry width="30" height="26" as="geometry" />
        </mxCell>
        <mxCell id="TRaGimJmE6PcG_rSbhwL-101" value="id_user_client" style="shape=partialRectangle;top=0;left=0;right=0;bottom=0;align=left;verticalAlign=top;fillColor=none;spacingLeft=34;spacingRight=4;overflow=hidden;rotatable=0;points=[[0,0.5],[1,0.5]];portConstraint=eastwest;dropTarget=0;fontSize=12;" parent="TRaGimJmE6PcG_rSbhwL-98" vertex="1">
          <mxGeometry y="82" width="160" height="26" as="geometry" />
        </mxCell>
        <mxCell id="TRaGimJmE6PcG_rSbhwL-102" value="*" style="shape=partialRectangle;top=0;left=0;bottom=0;fillColor=none;align=left;verticalAlign=top;spacingLeft=4;spacingRight=4;overflow=hidden;rotatable=0;points=[];portConstraint=eastwest;part=1;fontSize=12;" parent="TRaGimJmE6PcG_rSbhwL-101" vertex="1" connectable="0">
          <mxGeometry width="30" height="26" as="geometry" />
        </mxCell>
        <mxCell id="TRaGimJmE6PcG_rSbhwL-107" value="" style="shape=partialRectangle;top=0;left=0;right=0;bottom=0;align=left;verticalAlign=top;fillColor=none;spacingLeft=34;spacingRight=4;overflow=hidden;rotatable=0;points=[[0,0.5],[1,0.5]];portConstraint=eastwest;dropTarget=0;fontSize=12;" parent="TRaGimJmE6PcG_rSbhwL-98" vertex="1">
          <mxGeometry y="108" width="160" height="10" as="geometry" />
        </mxCell>
        <mxCell id="TRaGimJmE6PcG_rSbhwL-108" value="" style="shape=partialRectangle;top=0;left=0;bottom=0;fillColor=none;align=left;verticalAlign=top;spacingLeft=4;spacingRight=4;overflow=hidden;rotatable=0;points=[];portConstraint=eastwest;part=1;fontSize=12;" parent="TRaGimJmE6PcG_rSbhwL-107" vertex="1" connectable="0">
          <mxGeometry width="30" height="10" as="geometry" />
        </mxCell>
        <mxCell id="TRaGimJmE6PcG_rSbhwL-151" style="edgeStyle=orthogonalEdgeStyle;rounded=0;orthogonalLoop=1;jettySize=auto;html=1;entryX=0;entryY=0.5;entryDx=0;entryDy=0;" parent="1" source="TRaGimJmE6PcG_rSbhwL-73" target="TRaGimJmE6PcG_rSbhwL-143" edge="1">
          <mxGeometry relative="1" as="geometry">
            <Array as="points">
              <mxPoint x="800" y="81" />
              <mxPoint x="800" y="450" />
              <mxPoint x="580" y="450" />
              <mxPoint x="580" y="569" />
            </Array>
          </mxGeometry>
        </mxCell>
        <mxCell id="TRaGimJmE6PcG_rSbhwL-140" value="order" style="swimlane;fontStyle=0;childLayout=stackLayout;horizontal=1;startSize=26;fillColor=#e0e0e0;horizontalStack=0;resizeParent=1;resizeParentMax=0;resizeLast=0;collapsible=1;marginBottom=0;swimlaneFillColor=#ffffff;align=center;fontSize=14;" parent="1" vertex="1">
          <mxGeometry x="600" y="500" width="160" height="118" as="geometry" />
        </mxCell>
        <mxCell id="TRaGimJmE6PcG_rSbhwL-141" value="id" style="shape=partialRectangle;top=0;left=0;right=0;bottom=1;align=left;verticalAlign=middle;fillColor=none;spacingLeft=34;spacingRight=4;overflow=hidden;rotatable=0;points=[[0,0.5],[1,0.5]];portConstraint=eastwest;dropTarget=0;fontStyle=5;fontSize=12;" parent="TRaGimJmE6PcG_rSbhwL-140" vertex="1">
          <mxGeometry y="26" width="160" height="30" as="geometry" />
        </mxCell>
        <mxCell id="TRaGimJmE6PcG_rSbhwL-142" value="PK" style="shape=partialRectangle;top=0;left=0;bottom=0;fillColor=none;align=left;verticalAlign=middle;spacingLeft=4;spacingRight=4;overflow=hidden;rotatable=0;points=[];portConstraint=eastwest;part=1;fontSize=12;" parent="TRaGimJmE6PcG_rSbhwL-141" vertex="1" connectable="0">
          <mxGeometry width="30" height="30" as="geometry" />
        </mxCell>
        <mxCell id="TRaGimJmE6PcG_rSbhwL-173" value="description" style="shape=partialRectangle;top=0;left=0;right=0;bottom=0;align=left;verticalAlign=top;fillColor=none;spacingLeft=34;spacingRight=4;overflow=hidden;rotatable=0;points=[[0,0.5],[1,0.5]];portConstraint=eastwest;dropTarget=0;fontSize=12;" parent="TRaGimJmE6PcG_rSbhwL-140" vertex="1">
          <mxGeometry y="56" width="160" height="26" as="geometry" />
        </mxCell>
        <mxCell id="TRaGimJmE6PcG_rSbhwL-174" value="" style="shape=partialRectangle;top=0;left=0;bottom=0;fillColor=none;align=left;verticalAlign=top;spacingLeft=4;spacingRight=4;overflow=hidden;rotatable=0;points=[];portConstraint=eastwest;part=1;fontSize=12;" parent="TRaGimJmE6PcG_rSbhwL-173" vertex="1" connectable="0">
          <mxGeometry width="30" height="26" as="geometry" />
        </mxCell>
        <mxCell id="TRaGimJmE6PcG_rSbhwL-143" value="id_user" style="shape=partialRectangle;top=0;left=0;right=0;bottom=0;align=left;verticalAlign=top;fillColor=none;spacingLeft=34;spacingRight=4;overflow=hidden;rotatable=0;points=[[0,0.5],[1,0.5]];portConstraint=eastwest;dropTarget=0;fontSize=12;" parent="TRaGimJmE6PcG_rSbhwL-140" vertex="1">
          <mxGeometry y="82" width="160" height="26" as="geometry" />
        </mxCell>
        <mxCell id="TRaGimJmE6PcG_rSbhwL-144" value="" style="shape=partialRectangle;top=0;left=0;bottom=0;fillColor=none;align=left;verticalAlign=top;spacingLeft=4;spacingRight=4;overflow=hidden;rotatable=0;points=[];portConstraint=eastwest;part=1;fontSize=12;" parent="TRaGimJmE6PcG_rSbhwL-143" vertex="1" connectable="0">
          <mxGeometry width="30" height="26" as="geometry" />
        </mxCell>
        <mxCell id="TRaGimJmE6PcG_rSbhwL-149" value="" style="shape=partialRectangle;top=0;left=0;right=0;bottom=0;align=left;verticalAlign=top;fillColor=none;spacingLeft=34;spacingRight=4;overflow=hidden;rotatable=0;points=[[0,0.5],[1,0.5]];portConstraint=eastwest;dropTarget=0;fontSize=12;" parent="TRaGimJmE6PcG_rSbhwL-140" vertex="1">
          <mxGeometry y="108" width="160" height="10" as="geometry" />
        </mxCell>
        <mxCell id="TRaGimJmE6PcG_rSbhwL-150" value="" style="shape=partialRectangle;top=0;left=0;bottom=0;fillColor=none;align=left;verticalAlign=top;spacingLeft=4;spacingRight=4;overflow=hidden;rotatable=0;points=[];portConstraint=eastwest;part=1;fontSize=12;" parent="TRaGimJmE6PcG_rSbhwL-149" vertex="1" connectable="0">
          <mxGeometry width="30" height="10" as="geometry" />
        </mxCell>
        <mxCell id="TRaGimJmE6PcG_rSbhwL-163" value="order_plate" style="swimlane;fontStyle=0;childLayout=stackLayout;horizontal=1;startSize=26;fillColor=#e0e0e0;horizontalStack=0;resizeParent=1;resizeParentMax=0;resizeLast=0;collapsible=1;marginBottom=0;swimlaneFillColor=#ffffff;align=center;fontSize=14;" parent="1" vertex="1">
          <mxGeometry x="240" y="560" width="160" height="78" as="geometry" />
        </mxCell>
        <mxCell id="TRaGimJmE6PcG_rSbhwL-164" value="id_order" style="text;strokeColor=none;fillColor=none;spacingLeft=4;spacingRight=4;overflow=hidden;rotatable=0;points=[[0,0.5],[1,0.5]];portConstraint=eastwest;fontSize=12;" parent="TRaGimJmE6PcG_rSbhwL-163" vertex="1">
          <mxGeometry y="26" width="160" height="26" as="geometry" />
        </mxCell>
        <mxCell id="TRaGimJmE6PcG_rSbhwL-165" value="id_plate" style="text;strokeColor=none;fillColor=none;spacingLeft=4;spacingRight=4;overflow=hidden;rotatable=0;points=[[0,0.5],[1,0.5]];portConstraint=eastwest;fontSize=12;" parent="TRaGimJmE6PcG_rSbhwL-163" vertex="1">
          <mxGeometry y="52" width="160" height="26" as="geometry" />
        </mxCell>
        <mxCell id="TRaGimJmE6PcG_rSbhwL-167" style="edgeStyle=orthogonalEdgeStyle;rounded=0;orthogonalLoop=1;jettySize=auto;html=1;" parent="1" source="TRaGimJmE6PcG_rSbhwL-44" target="TRaGimJmE6PcG_rSbhwL-165" edge="1">
          <mxGeometry relative="1" as="geometry" />
        </mxCell>
        <mxCell id="TRaGimJmE6PcG_rSbhwL-168" style="edgeStyle=orthogonalEdgeStyle;rounded=0;orthogonalLoop=1;jettySize=auto;html=1;" parent="1" source="TRaGimJmE6PcG_rSbhwL-141" target="TRaGimJmE6PcG_rSbhwL-164" edge="1">
          <mxGeometry relative="1" as="geometry" />
        </mxCell>
      </root>
    </mxGraphModel>
  </diagram>
</mxfile>
